<?xml version="1.0" standalone="no"?>
<!DOCTYPE svg PUBLIC "-//W3C//DTD SVG 20010904//EN"
 "http://www.w3.org/TR/2001/REC-SVG-20010904/DTD/svg10.dtd">
<svg version="1.0" xmlns="http://www.w3.org/2000/svg"
 width="493.000000pt" height="493.000000pt" viewBox="0 0 493.000000 493.000000"
 preserveAspectRatio="xMidYMid meet">

<g transform="translate(0.000000,493.000000) scale(0.100000,-0.100000)"
fill="#E6B845" stroke="none">
<path d="M2385 4924 c-220 -20 -287 -29 -393 -50 -467 -94 -876 -308 -1219
-637 -433 -417 -689 -938 -754 -1537 -31 -292 2 -627 92 -932 242 -813 918
-1468 1736 -1679 237 -61 343 -73 618 -73 275 0 381 12 618 73 679 176 1271
660 1582 1296 119 242 180 432 228 705 31 182 31 568 0 750 -91 520 -306 952
-656 1317 -363 377 -801 618 -1304 717 -177 35 -444 59 -548 50z m415 -170
c244 -35 476 -107 696 -215 449 -221 822 -594 1043 -1043 163 -332 235 -645
235 -1031 0 -386 -72 -699 -235 -1031 -115 -234 -242 -409 -438 -605 -196
-196 -371 -323 -605 -438 -332 -163 -645 -235 -1031 -235 -386 0 -699 72
-1031 235 -449 221 -822 594 -1043 1043 -163 332 -235 645 -235 1031 0 386 72
699 235 1031 145 295 380 585 636 787 346 274 773 443 1226 487 128 12 410 4
547 -16z"/>
<path d="M2270 4533 c-393 -40 -795 -204 -1100 -450 -96 -78 -245 -227 -323
-323 -197 -245 -353 -576 -416 -885 -108 -532 -2 -1077 299 -1539 205 -314
491 -568 825 -731 585 -287 1234 -287 1820 -1 503 246 886 686 1059 1216 75
228 106 416 106 642 0 402 -116 788 -340 1132 -125 192 -245 324 -423 468
-342 275 -689 424 -1089 467 -90 10 -337 12 -418 4z m485 -158 c228 -39 410
-97 598 -191 533 -265 908 -776 1018 -1390 32 -176 32 -479 0 -658 -87 -495
-345 -920 -738 -1215 -420 -315 -940 -445 -1468 -366 -325 49 -621 177 -900
388 -175 133 -361 350 -483 565 -310 541 -332 1244 -58 1804 299 610 867 1006
1549 1078 114 12 374 4 482 -15z"/>
<path d="M1982 3947 c-41 -44 -32 -61 123 -217 80 -80 145 -151 145 -158 0
-34 -48 1 -180 133 -81 80 -154 145 -164 145 -10 0 -31 -13 -47 -30 -23 -23
-29 -35 -24 -52 4 -13 70 -86 146 -163 127 -128 161 -175 126 -175 -7 0 -77
65 -157 145 -156 156 -176 167 -218 122 -42 -45 -33 -59 151 -245 94 -95 183
-179 197 -187 32 -16 56 -7 99 39 19 20 42 36 51 36 19 0 160 -140 160 -160 0
-8 -85 -100 -190 -205 -204 -205 -213 -220 -167 -263 46 -43 59 -35 262 168
104 105 196 190 205 190 8 0 100 -85 205 -190 203 -202 217 -211 265 -172 50
40 37 60 -169 266 -105 105 -191 198 -191 206 0 9 36 51 79 94 75 74 81 78
113 72 18 -4 58 -9 88 -12 162 -17 330 146 330 320 0 103 -82 210 -183 237
-131 35 -291 -49 -354 -188 -34 -74 -40 -130 -19 -194 l17 -52 -83 -84 c-45
-45 -89 -83 -98 -83 -19 0 -160 140 -160 159 0 9 18 33 39 56 71 74 76 64
-135 276 -203 203 -218 213 -262 166z m1047 -201 c105 -55 37 -247 -96 -272
-89 -17 -152 42 -139 130 18 113 143 189 235 142z"/>
<path d="M1238 3099 c-30 -17 -37 -43 -54 -181 -23 -185 -23 -517 -1 -668 54
-363 178 -625 398 -835 171 -163 412 -283 686 -341 78 -16 83 -19 93 -49 25
-76 68 -82 277 -40 220 45 392 111 541 210 85 56 221 180 281 258 232 301 338
753 301 1282 -6 94 -17 181 -23 195 -7 13 -24 31 -38 39 -26 15 -32 12 -223
-102 -236 -142 -428 -269 -556 -367 -122 -94 -322 -295 -380 -382 -25 -37 -52
-67 -60 -67 -8 0 -34 34 -58 77 -116 210 -330 429 -633 648 -169 121 -499 334
-518 334 -9 0 -24 -5 -33 -11z m312 -322 c444 -295 697 -555 815 -840 l28 -68
-26 -82 c-24 -74 -32 -106 -52 -199 -3 -16 -11 -28 -19 -28 -20 0 -210 174
-307 282 -172 192 -311 396 -424 623 -71 144 -155 347 -155 376 0 26 15 19
140 -64z m1987 -72 c-9 -53 -111 -303 -183 -446 -111 -223 -214 -387 -370
-589 -94 -122 -473 -510 -498 -510 -21 0 -31 88 -30 265 1 126 6 166 27 247
91 348 343 630 839 942 122 77 207 126 217 126 2 0 1 -16 -2 -35z m-2172 -135
c177 -427 515 -866 892 -1158 44 -34 45 -38 58 -150 l6 -54 -43 7 c-70 12
-268 80 -348 120 -322 162 -516 437 -590 835 -29 153 -41 504 -17 480 8 -8 27
-44 42 -80z m2252 -208 c-25 -453 -178 -799 -448 -1007 -78 -61 -228 -139
-337 -175 -157 -52 -157 -45 -2 115 218 226 368 419 512 657 73 121 205 380
238 468 14 36 29 60 38 60 3 0 2 -53 -1 -118z"/>
</g>
</svg>
